<?xml version="1.0" standalone="no"?>
<!DOCTYPE svg PUBLIC "-//W3C//DTD SVG 20010904//EN"
 "http://www.w3.org/TR/2001/REC-SVG-20010904/DTD/svg10.dtd">
<svg version="1.0" xmlns="http://www.w3.org/2000/svg"
 width="512.000000pt" height="512.000000pt" viewBox="0 0 512.000000 512.000000"
 preserveAspectRatio="xMidYMid meet">

<g transform="translate(0.000000,512.000000) scale(0.100000,-0.100000)"
fill="#000000" stroke="none">
<path d="M895 4946 c-37 -16 -70 -52 -84 -89 -8 -20 -11 -715 -11 -2298 0
-1894 2 -2275 14 -2302 28 -68 104 -107 182 -93 27 6 214 150 797 617 419 335
767 607 774 605 6 -3 350 -275 763 -606 413 -331 764 -606 778 -611 68 -27
162 14 196 85 15 32 16 215 14 2319 l-3 2286 -21 27 c-11 15 -33 37 -48 48
-27 21 -28 21 -1674 23 -1357 2 -1652 0 -1677 -11z m3105 -2297 c0 -1589 -3
-1989 -12 -1983 -7 5 -315 250 -685 545 -704 563 -698 560 -777 545 -25 -5
-213 -150 -715 -551 -375 -300 -683 -545 -686 -545 -3 0 -5 896 -5 1990 l0
1990 1440 0 1440 0 0 -1991z"/>
</g>
</svg>
