<?xml version="1.0" standalone="no"?>
<!DOCTYPE svg PUBLIC "-//W3C//DTD SVG 20010904//EN"
 "http://www.w3.org/TR/2001/REC-SVG-20010904/DTD/svg10.dtd">
<svg version="1.0" xmlns="http://www.w3.org/2000/svg"
 width="400.000000pt" height="400.000000pt" viewBox="0 0 400.000000 400.000000"
 preserveAspectRatio="xMidYMid meet">

<g transform="translate(0.000000,400.000000) scale(0.100000,-0.100000)"
fill="#000000" stroke="none">
<path d="M350 3017 c0 -9 20 -17 57 -23 44 -7 61 -15 77 -37 20 -27 21 -43 27
-410 4 -268 9 -394 18 -422 32 -101 89 -162 198 -213 56 -26 65 -27 218 -27
152 0 163 2 215 26 95 45 135 82 170 153 48 96 60 210 60 569 l0 299 29 28
c21 21 42 31 80 36 31 4 50 11 48 18 -2 7 -67 12 -200 14 -165 2 -197 0 -197
-12 0 -9 17 -16 51 -21 30 -4 61 -16 77 -30 l27 -23 3 -309 c5 -455 -9 -536
-105 -609 -69 -52 -145 -76 -243 -76 -126 0 -198 38 -245 131 -41 83 -46 142
-43 513 l3 346 23 25 c17 18 40 27 80 33 31 5 57 14 57 19 0 6 -89 11 -242 13
-199 2 -243 0 -243 -11z"/>
<path d="M1597 3023 c-15 -15 -4 -21 49 -28 74 -9 100 -34 109 -106 3 -30 5
-241 3 -469 -2 -313 -6 -420 -16 -437 -16 -29 -44 -44 -100 -52 -25 -3 -43
-10 -41 -16 3 -6 128 -10 349 -9 425 1 460 7 563 103 91 84 117 213 64 317
-31 61 -75 97 -158 128 l-62 23 47 24 c207 103 199 365 -14 471 -95 48 -183
58 -501 58 -157 0 -289 -3 -292 -7z m633 -80 c141 -63 191 -205 114 -329 -45
-73 -100 -97 -241 -102 -61 -2 -128 -1 -147 2 l-36 7 0 219 0 219 28 4 c15 3
74 4 132 3 80 -2 116 -7 150 -23z m-3 -515 c144 -47 212 -169 173 -308 -12
-46 -71 -103 -135 -132 -43 -20 -66 -23 -170 -23 -66 0 -132 3 -147 8 l-28 7
0 235 0 235 120 0 c96 0 133 -4 187 -22z"/>
<path d="M2597 3023 c-4 -3 -7 -62 -7 -130 0 -116 1 -123 20 -123 15 0 20 7
20 25 0 44 40 113 78 137 30 19 54 23 154 26 l118 4 0 -471 c0 -534 0 -532
-67 -550 -21 -6 -49 -12 -63 -13 -14 -2 -24 -7 -22 -13 3 -15 464 -14 469 1 2
7 -17 14 -48 17 -69 8 -95 27 -102 74 -4 21 -7 244 -7 496 l0 457 93 0 c50 0
109 -3 131 -7 52 -8 110 -64 127 -123 23 -81 29 -66 29 68 l0 132 -458 0
c-252 0 -462 -3 -465 -7z"/>
<path d="M347 1753 c-4 -3 -7 -10 -7 -15 0 -4 715 -8 1590 -8 1407 0 1590 2
1590 15 0 13 -183 15 -1583 15 -871 0 -1587 -3 -1590 -7z"/>
<path d="M2470 1640 c0 -11 4 -20 9 -20 6 0 9 9 8 20 -1 11 -5 20 -9 20 -4 0
-8 -9 -8 -20z"/>
<path d="M2770 1625 c0 -8 5 -15 10 -15 6 0 10 7 10 15 0 8 -4 15 -10 15 -5 0
-10 -7 -10 -15z"/>
<path d="M2810 1624 c0 -8 5 -12 10 -9 6 3 10 10 10 16 0 5 -4 9 -10 9 -5 0
-10 -7 -10 -16z"/>
<path d="M2008 1624 c-5 -4 -8 -47 -8 -94 0 -96 -8 -112 -57 -112 -33 0 -53
26 -53 69 0 18 -4 33 -10 33 -5 0 -10 -18 -10 -39 0 -71 82 -107 129 -57 20
21 22 32 19 115 -2 51 -6 89 -10 85z"/>
<path d="M2582 1564 c-2 -76 -23 -123 -42 -94 -5 8 -14 39 -20 67 -6 29 -16
55 -21 58 -13 9 -11 -25 6 -81 8 -27 15 -50 15 -51 0 -2 -11 -3 -25 -3 -14 0
-25 -4 -25 -10 0 -16 96 -12 109 4 8 9 11 44 8 98 l-3 83 -2 -71z"/>
<path d="M350 1542 c0 -47 5 -83 12 -90 15 -15 314 -17 323 -2 20 32 -25 105
-70 116 -28 7 -85 -12 -85 -28 0 -6 8 -7 18 -3 61 26 112 3 112 -50 l0 -26
-97 3 -98 3 -2 45 c-2 68 -6 71 -12 10 -6 -52 -8 -55 -35 -58 -16 -2 -33 1
-38 6 -6 6 -10 42 -9 81 1 43 -3 71 -9 71 -6 0 -10 -32 -10 -78z"/>
<path d="M898 1543 l-3 -78 -37 -3 -38 -3 0 43 c0 49 -13 68 -45 68 -52 0 -76
-84 -33 -114 12 -9 32 -16 43 -16 20 -1 20 -1 1 -15 -11 -8 -16 -18 -13 -22 4
-3 17 3 30 15 14 13 36 22 54 22 51 0 63 21 63 106 0 98 -18 96 -22 -3z m-100
-40 c3 -36 0 -43 -15 -43 -27 0 -43 19 -43 50 0 33 8 42 35 38 16 -2 21 -12
23 -45z"/>
<path d="M1235 1590 c-20 -39 -20 -40 19 -40 42 0 86 -33 86 -66 0 -24 -1 -24
-95 -24 l-95 0 0 55 c0 70 -18 72 -22 3 -3 -52 -4 -53 -35 -56 -31 -3 -33 -2
-33 30 0 74 -67 105 -99 46 -22 -39 -5 -80 38 -94 31 -10 33 -12 15 -22 -10
-6 -16 -13 -12 -17 8 -8 48 13 48 25 0 6 89 10 231 10 140 0 238 4 250 10 16
9 19 22 19 90 0 103 -18 105 -22 3 l-3 -78 -36 -3 -36 -3 5 49 c2 31 0 52 -7
56 -7 5 -11 -6 -11 -33 0 -59 -8 -71 -45 -71 -29 0 -33 4 -39 34 -8 40 -32 64
-74 72 -32 7 -41 18 -22 29 13 8 13 25 0 25 -5 0 -16 -13 -25 -30z m-199 -64
c10 -40 1 -61 -25 -61 -30 0 -46 24 -37 58 9 37 53 38 62 3z"/>
<path d="M1580 1531 c0 -75 3 -91 15 -91 13 0 15 14 13 87 -2 58 -7 88 -15 91
-10 3 -13 -19 -13 -87z"/>
<path d="M2072 1545 c-2 -93 5 -105 59 -105 21 0 41 -4 44 -10 3 -5 19 -10 35
-10 16 0 32 5 35 10 3 6 48 10 101 10 56 0 94 4 94 10 0 6 -20 10 -45 10 -39
0 -45 3 -51 24 -8 34 12 66 41 66 14 0 25 -4 25 -10 0 -5 7 -10 17 -10 14 0
14 2 -2 20 -41 46 -111 7 -103 -57 3 -24 -1 -28 -24 -31 -22 -3 -27 2 -33 27
-6 30 -38 61 -60 61 -21 0 -55 -41 -55 -65 0 -20 -5 -25 -24 -25 -35 0 -45 19
-49 95 l-3 70 -2 -80z m166 -56 c3 -39 -15 -63 -41 -53 -38 14 -24 98 16 92
17 -2 23 -10 25 -39z"/>
<path d="M2630 1530 c0 -53 4 -90 10 -90 6 0 10 37 10 90 0 53 -4 90 -10 90
-6 0 -10 -37 -10 -90z"/>
<path d="M3280 1536 c0 -67 3 -85 16 -90 9 -3 63 -6 120 -6 l104 0 0 36 c0 70
-82 118 -134 79 -24 -18 -15 -30 12 -16 12 6 29 11 39 11 28 0 63 -37 63 -66
l0 -25 -97 3 -98 3 -3 78 c-4 104 -22 99 -22 -7z"/>
<path d="M1130 1600 c0 -5 5 -10 10 -10 6 0 10 5 10 10 0 6 -4 10 -10 10 -5 0
-10 -4 -10 -10z"/>
<path d="M1405 1600 c3 -5 8 -10 11 -10 2 0 4 5 4 10 0 6 -5 10 -11 10 -5 0
-7 -4 -4 -10z"/>
<path d="M1435 1600 c3 -5 8 -10 11 -10 2 0 4 5 4 10 0 6 -5 10 -11 10 -5 0
-7 -4 -4 -10z"/>
<path d="M2747 1582 c-42 -46 -4 -138 46 -115 18 8 28 7 46 -8 26 -21 73 -24
120 -8 24 9 35 9 44 0 6 -6 37 -11 69 -11 32 0 67 -5 78 -12 13 -9 27 -9 47
-2 25 8 28 14 28 54 0 38 -4 46 -27 59 -25 15 -29 14 -52 -8 -15 -14 -26 -35
-26 -48 0 -21 -4 -23 -49 -23 -28 0 -53 4 -56 10 -3 5 4 23 16 39 18 25 20 33
9 46 -16 19 -90 20 -116 1 -18 -14 -18 -16 16 -45 29 -25 33 -32 20 -41 -21
-14 -93 -13 -108 2 -7 7 -12 38 -12 70 l0 58 -38 0 c-25 0 -45 -7 -55 -18z
m71 -30 c4 -43 -14 -74 -41 -70 -18 2 -23 11 -25 46 -3 36 0 44 20 51 33 14
43 8 46 -27z m210 -7 c7 -7 -19 -45 -31 -45 -12 1 -57 34 -57 43 0 13 74 14
88 2z m180 -56 c3 -40 -15 -63 -42 -53 -40 15 -25 98 17 92 17 -2 23 -11 25
-39z"/>
<path d="M1706 1548 c-9 -12 -16 -29 -16 -38 0 -27 30 -60 56 -60 28 0 32 -15
7 -29 -25 -14 -9 -25 16 -11 18 9 21 20 21 73 0 36 -5 68 -12 75 -19 19 -55
14 -72 -10z m62 -37 c4 -38 -13 -55 -40 -40 -11 6 -18 21 -18 38 0 34 8 43 35
39 15 -2 21 -12 23 -37z"/>
<path d="M410 1410 c0 -5 5 -10 10 -10 6 0 10 5 10 10 0 6 -4 10 -10 10 -5 0
-10 -4 -10 -10z"/>
<path d="M450 1409 c0 -5 5 -7 10 -4 6 3 10 8 10 11 0 2 -4 4 -10 4 -5 0 -10
-5 -10 -11z"/>
<path d="M590 1410 c0 -5 5 -10 10 -10 6 0 10 5 10 10 0 6 -4 10 -10 10 -5 0
-10 -4 -10 -10z"/>
<path d="M896 1324 c-9 -8 -16 -19 -16 -23 0 -13 24 -31 43 -31 11 0 17 -5 14
-12 -2 -7 -16 -12 -31 -11 -14 1 -26 -2 -26 -8 0 -16 70 -10 76 6 8 20 -13 45
-38 45 -11 0 -18 5 -15 13 2 6 14 12 26 11 25 -1 28 11 5 20 -21 8 -20 8 -38
-10z"/>
<path d="M1694 1326 c-15 -12 -17 -18 -8 -33 6 -10 21 -19 33 -21 11 -2 21
-10 21 -19 0 -12 -7 -14 -30 -9 -17 3 -30 1 -30 -4 0 -17 67 -12 74 6 8 21
-11 44 -36 44 -11 0 -18 5 -15 13 2 6 14 12 26 11 25 -1 28 11 5 20 -20 8 -17
8 -40 -8z"/>
<path d="M2133 1329 c-35 -13 -30 -48 7 -56 37 -7 34 -29 -4 -26 -14 1 -26 -2
-26 -8 0 -17 67 -10 74 7 8 21 -11 44 -35 44 -11 0 -19 7 -19 16 0 12 6 15 25
10 14 -4 25 -2 25 3 0 14 -23 19 -47 10z"/>
<path d="M2799 1326 c-27 -13 -37 -59 -18 -82 12 -15 69 -20 69 -6 0 4 -12 8
-27 7 -25 0 -28 3 -28 35 0 32 3 35 28 35 29 -1 36 9 13 18 -7 3 -24 0 -37 -7z"/>
<path d="M3083 1332 c-43 -29 -31 -102 17 -102 33 0 50 17 50 51 0 35 -42 67
-67 51z m48 -39 c11 -31 -13 -62 -38 -47 -23 14 -28 41 -12 60 16 20 40 14 50
-13z"/>
<path d="M3249 1319 c-21 -21 -25 -59 -7 -77 22 -22 67 -14 80 13 24 53 -33
104 -73 64z m57 -24 c7 -27 -10 -55 -32 -55 -19 0 -29 47 -14 65 19 23 39 18
46 -10z"/>
<path d="M3360 1320 c-38 -38 -16 -94 35 -88 22 2 31 9 33 26 3 17 -1 22 -20
21 -13 0 -17 -3 -10 -6 22 -9 14 -35 -10 -31 -17 2 -24 11 -26 32 -4 34 13 48
48 41 24 -5 24 -5 6 10 -26 20 -32 19 -56 -5z"/>
<path d="M352 1283 c3 -41 6 -48 26 -51 13 -2 30 2 38 8 16 14 20 90 4 90 -5
0 -10 -18 -10 -40 0 -28 -5 -43 -16 -47 -21 -8 -35 15 -31 50 2 15 0 30 -5 33
-5 3 -8 -16 -6 -43z"/>
<path d="M449 1328 c-5 -25 -3 -90 3 -94 4 -3 8 9 8 25 0 39 12 40 27 1 18
-47 33 -36 31 23 -1 35 -2 42 -5 20 -5 -41 -15 -42 -30 -3 -6 17 -16 30 -22
30 -6 0 -11 -1 -12 -2z"/>
<path d="M545 1280 c0 -38 3 -50 15 -50 11 0 15 12 15 50 0 38 -4 50 -15 50
-11 0 -15 -12 -15 -50z"/>
<path d="M608 1283 c9 -25 22 -48 28 -50 12 -4 50 84 41 94 -3 3 -13 -12 -22
-33 l-17 -39 -15 38 c-22 54 -36 46 -15 -10z"/>
<path d="M700 1280 l0 -50 38 1 c31 2 32 3 9 6 -20 3 -27 9 -25 21 2 9 11 17
20 17 9 0 20 4 24 8 4 4 -5 7 -19 7 -36 0 -35 27 1 33 22 3 20 4 -10 6 l-38 1
0 -50z"/>
<path d="M791 1278 c1 -29 4 -43 6 -30 5 27 15 28 38 2 22 -24 43 -27 24 -3
-8 9 -14 30 -14 47 0 26 -4 31 -27 34 -28 3 -28 3 -27 -50z m44 22 c0 -8 -8
-16 -17 -18 -13 -2 -18 3 -18 18 0 15 5 20 18 18 9 -2 17 -10 17 -18z"/>
<path d="M975 1280 c0 -38 4 -50 15 -50 11 0 15 12 15 50 0 38 -4 50 -15 50
-11 0 -15 -12 -15 -50z"/>
<path d="M1043 1323 c13 -3 17 -15 17 -49 0 -24 5 -44 10 -44 6 0 10 18 10 40
0 27 6 42 18 49 13 8 7 10 -28 10 -25 -1 -37 -3 -27 -6z"/>
<path d="M1130 1324 c0 -5 7 -19 15 -30 8 -10 15 -29 15 -41 0 -13 5 -23 10
-23 6 0 10 12 10 28 0 15 7 38 16 50 8 12 11 22 5 22 -6 0 -15 -9 -21 -20 -11
-21 -11 -21 -30 2 -11 13 -19 18 -20 12z"/>
<path d="M1262 1318 c-15 -15 -15 -61 0 -76 15 -15 51 -15 66 0 7 7 12 24 12
38 0 31 -17 50 -45 50 -12 0 -26 -5 -33 -12z m59 -25 c10 -27 -12 -59 -35 -50
-16 6 -23 57 -9 71 13 12 36 2 44 -21z"/>
<path d="M1360 1280 c0 -27 5 -50 10 -50 6 0 10 8 10 19 0 10 10 22 23 26 l22
8 -22 4 c-32 6 -29 31 5 36 22 3 20 4 -10 6 l-38 1 0 -50z"/>
<path d="M1490 1281 l0 -51 34 0 c39 0 47 13 37 61 -6 29 -11 34 -39 37 l-32
3 0 -50z m50 24 c0 -8 -7 -15 -15 -15 -8 0 -15 7 -15 15 0 8 7 15 15 15 8 0
15 -7 15 -15z m8 -47 c-7 -19 -38 -22 -38 -4 0 10 9 16 21 16 12 0 19 -5 17
-12z"/>
<path d="M1580 1291 c0 -44 18 -64 52 -59 20 3 23 9 25 53 l1 50 -7 -42 c-8
-49 -14 -58 -36 -50 -10 4 -15 20 -15 47 0 22 -4 40 -10 40 -5 0 -10 -17 -10
-39z"/>
<path d="M1787 1295 c3 -21 1 -41 -7 -50 -10 -12 -9 -15 6 -15 16 0 19 8 19
50 0 32 -4 50 -12 50 -8 0 -10 -11 -6 -35z"/>
<path d="M1837 1323 c-9 -15 -6 -93 4 -93 5 0 9 17 9 38 l0 37 22 -37 c12 -21
26 -38 30 -38 4 0 7 24 7 53 -1 45 -2 47 -8 18 -5 -27 -8 -31 -17 -20 -6 8
-14 22 -17 32 -7 18 -22 23 -30 10z"/>
<path d="M1930 1280 l0 -50 38 1 c30 2 32 3 10 6 -16 2 -28 10 -28 18 0 7 12
18 28 23 l27 10 -27 1 c-17 1 -28 7 -28 15 0 8 12 17 28 19 22 3 20 4 -10 6
l-38 1 0 -50z"/>
<path d="M2027 1323 c-18 -17 -6 -44 23 -49 17 -4 30 -13 30 -21 0 -12 -7 -14
-30 -9 -17 3 -30 1 -30 -4 0 -16 56 -12 70 5 16 19 -3 45 -31 45 -11 0 -19 7
-19 16 0 12 7 15 25 12 14 -3 25 -1 25 3 0 10 -54 12 -63 2z"/>
<path d="M2276 1321 c-15 -23 -34 -91 -27 -91 5 0 11 7 15 15 7 20 42 19 50
-1 13 -34 15 -7 2 36 -13 44 -29 60 -40 41z m24 -42 c0 -5 -4 -9 -10 -9 -5 0
-10 7 -10 16 0 8 5 12 10 9 6 -3 10 -10 10 -16z"/>
<path d="M2351 1278 c2 -53 2 -53 8 -13 l7 40 19 -37 c10 -21 22 -38 27 -38 4
0 7 24 7 53 -1 47 -2 48 -8 17 l-7 -35 -17 33 c-25 46 -37 40 -36 -20z"/>
<path d="M2440 1280 c0 -49 1 -50 30 -50 20 0 35 8 46 25 15 23 15 27 0 50
-11 17 -26 25 -46 25 -29 0 -30 -1 -30 -50z m51 30 c23 -13 25 -43 4 -60 -22
-19 -45 -5 -45 28 0 42 9 49 41 32z"/>
<path d="M2603 1323 c13 -3 17 -15 17 -49 0 -24 5 -44 10 -44 6 0 10 20 10 44
0 34 4 46 18 49 9 3 -3 5 -28 5 -25 0 -37 -2 -27 -5z"/>
<path d="M2690 1280 l0 -50 38 1 c35 1 36 2 8 8 -17 3 -29 9 -28 14 1 4 2 12
2 18 0 6 7 8 16 5 9 -3 21 -3 27 1 7 5 0 10 -18 13 -38 7 -38 23 1 31 28 6 27
7 -8 8 l-38 1 0 -50z"/>
<path d="M2870 1280 c0 -27 5 -50 10 -50 6 0 10 9 10 19 0 19 23 35 34 24 3
-4 6 -15 6 -25 0 -10 5 -18 10 -18 6 0 10 23 10 50 0 28 -4 50 -10 50 -5 0
-10 -9 -10 -20 0 -13 -7 -20 -20 -20 -13 0 -20 7 -20 20 0 11 -4 20 -10 20 -5
0 -10 -22 -10 -50z"/>
<path d="M2960 1280 c0 -58 17 -68 22 -12 l3 37 18 -37 c25 -52 37 -48 37 12
0 28 -4 50 -10 50 -5 0 -10 -12 -10 -27 l-1 -28 -17 28 c-26 43 -42 34 -42
-23z"/>
<path d="M3171 1330 c-1 -3 -3 -26 -4 -52 l-3 -48 36 1 c31 1 32 2 10 8 -21 6
-26 15 -31 51 -3 25 -7 43 -8 40z"/>
<path d="M3455 1300 c8 -16 15 -38 15 -50 0 -11 5 -20 10 -20 6 0 10 10 10 23
0 13 7 32 15 43 21 28 17 43 -5 16 l-19 -23 -13 20 c-20 32 -30 25 -13 -9z"/>
</g>
</svg>
